<?xml version="1.0" encoding="UTF-8"?>
<svg id="Layer_1" data-name="Layer 1" xmlns="http://www.w3.org/2000/svg" viewBox="0 0 644.88 645.09">
  <defs>
    <style>
      .cls-1 {
        fill: #27251f;
      }
    </style>
  </defs>
  <path class="cls-1" d="M588.3,252.11c-4.53-18.93-20.1-22.98-37.53-20.96,1.86-18.61-14.9-32.06-32.95-29.05-3.99-32.76-43.69-42.47-69.35-27.76-3.22,1.84-10.87,8.71-13.28,8.82-2.29.11-5.5-2.85-8.14-3.79-23.56-8.34-39.32,9.84-45.41,30.64-14.73-.87-31.41,7.11-29.87,24.13-8.95-2.71-17.78-1.14-26.99-2-.29-1.64.78-2.68,1.58-3.91,4.16-6.42,12.4-15.05,15.84-21.16,5.37-9.54-6.7-37.64-4.43-39.92,4.6.54,8.44-.54,12.76-1.74,4.28-1.19,13.88-7.19,15.74-7.18,1.91,0,4.15,2.09,6.27,2.66,6.77,1.81,11.86,3.13,18.63.17,2.76-1.21,6.03-5.45,7.22-5.68,1.76-.34,11.51,3.28,15,3.65,6.41.68,13.54,1.03,18.87-2.88,24.58-18.05,5.1-47.4-21.49-40,1.25-17.72-14.11-32.39-32.01-29.99-1.07-36.04-56.52-44.37-78.04-22.55-2.03,2.06-7.3,10.95-8.63,11.4-3.46,1.18-8.38-1.84-12.52-1.63-18.95.95-26.79,17.78-25.81,34.77-18.13-15.3-51.27-4.34-46.75,22.27,1.56,9.17,11.43,16.58,20.34,17.65,4.03.48,8.56-1.37,11.44-.51,2.79.84,5.85,5.57,8.64,7.43,6.23,4.17,13.39,4.92,20.72,4.06,3.02-.35,11.85-4.14,12.95-3.81.53.16,5.01,6.04,6.65,7.43,3.49,2.96,9.04,5.81,13.6,6.4,4.08.53,11.57-1.65,13.18,2.82,1.28,3.55,4.06,19.79,4.24,23.8.41,9.33-7.59,12.56-12.98,19-5.7,6.82-9.4,15.1-15.06,21.94-10.55,12.74-26.32,21.58-23.97,41.53-1.47,1.48-27.28-7.84-30.87-9.63-6.11-3.04-18.24-11.1-23.62-15.38-2.87-2.28-4.56-5.24-4.49-9,7.04,3.3,13.62-2.5,18.49-7,4.5,8.77,17.21,10.88,25.56,6.56,2.5-1.29,5.24-5.04,6.66-5.42,2.98-.79,8.9,1.88,15,.08,5.06-1.5,12.32-8.82,14.32-13.68,9.37-22.85-19.03-39.51-39.03-32.53-.39-11.85-9.87-21.5-21.59-22.92-3.03-.37-8.99,1.19-9.36.9-.17-.13-.62-2.75-1.59-3.94-12.4-15.24-33.18-16.57-50.9-10.99-17.57,5.54-20.17,16.37-24.75,32.76-9.14,2.48-17.69-.73-26.35,4.15-8.05,4.54-11.84,16.19-11.47,25.03-23.96-7.37-32.3,27.91-11.67,37.18,6.65,2.99,19.69,2.63,27.05,1.7,3.87-.49,9.03-2.86,12.17-2.95,3.68-.1,8.27,3.69,12.95,4.09,5.12.43,8.78-2.2,11.94-1.99,2.04.13,8.33,3.62,11.55,4.49,9.49,2.55,27.35,3.37,34.51,8.49,4.56,3.27,8.93,9.83,13.49,13.51,12.08,9.73,31.03,12.59,45,19,9.11,4.18,9.72,8.71,15.5,15.5,2.25,2.64,11.07,9.43,10.37,12.24-.35,1.41-3.39,5.38-4.34,7.76-5.06,12.71-4.61,21.27-17.61,29.39-7.03,4.4-14.84,6.46-23.15,5.33-7.48-1.02-40.8-12.29-48.28-15.72-1.98-.91-3.89-1.98-5.46-3.52,5.94-7.47,8.24,2.02,16.62,2.44,6.33.31,11.18-5.1,11.83-4.99,2.15.36,5.51,4.68,10.49,5.59,9.6,1.76,24.81-7.09,21.29-17.25-.29-.83-6.32-9.8-6.98-10.32-3.38-2.69-10.89-4.1-15.22-4.02-1.43-13.92-11.35-25.13-24.98-28.51-3.61-.9-11.43-.66-14.07-1.93-1.05-.5-7.99-10.54-10.98-13.02-13.11-10.9-29.66-9.98-42.93.1-2.81,2.14-10.6,11.98-11.8,12.28-2.03.51-3.8-1.63-5.84-1.82-19.67-1.9-31.69,6.74-32.45,26.95-21.95-11.9-47.36,10.41-37.9,33.41,4.63,11.26,20.85,15.74,31.97,13.17,2.67-.62,7.16-4.67,8.29-4.47.46.08,4.21,3.77,6.26,4.78,11.65,5.73,15.82-.07,23.79,1.13,2.76.42,9.75,6.89,13.58,8.5,8.15,3.43,17.64,4.01,26.38,3.37,13.39-.99,25.14-8.09,37.9-3.65,28.61,9.95,40.32,23.63,74.73,14.28,23.9-6.49,21.16-35.37,48.48-33.49,30.72,2.12,42.24,33.79,23.02,56.99-15.13,18.27-39.98,22.36-60.18,31.82-19.55,9.15-15.48,15.99-26.35,29.65-12.57,15.79-28.79,7.03-43.89,16.11-3.2,1.93-5.85,5.38-8.75,7.25-7.85,5.04-20.59,5.91-29.84,7.16-7.15.97-16.07-.56-22.84,4.16-8.56,5.95-3.88,18.55,5.81,18.9h339.09c7.36-.08,12.19-7.96,9.52-14.62-2.49-6.22-9.63-7.04-15.53-7.46-11.85-.85-40.51,1.36-49.47-3.53-4.79-2.61-9.23-7.59-14.4-10.6-7.28-4.25-24.98-8.56-25.62-18.38-.53-8.1,17.64-29.77,22.14-38.76,14.5-28.99,12.22-66.94-13.17-89.2-4.41-3.86-20.42-11.7-21.04-16.04-1.59-11.09,19.72-11.54,27.03-13.94,17.28-5.69,20.06-27.17,38.73-30.26,6.99-1.16,12.42,2.86,19.23,4.3,9.54,2.01,14.54,2.1,23.72-1.36,3.82-1.44,14.45-8.76,16.03-9.01,3.24-.51,12.04,4.61,19.8,3.83,5.32-.54,11.31-5.69,11.98-5.75,1.23-.1,6.5,4.98,8.63,6.13,20.94,11.35,45.15-5.44,39.41-29.42ZM333.77,150.14c3.06.06,6.03.19,9.06-.44,3.97-.82,10.23-7.38,11.8-1.84,2.14,7.55-18.55,11.5-20.82,9.24-.46-.46.21-5.54-.05-6.96ZM311.53,156.9c-5.16,5.17-21.98-1.44-20.76-10.76,3.88-1.36,6.11,2.35,10.59,2.9,2.71.33,8.48-.9,9.4-.46,2.64,1.27,2.57,6.5.77,8.31ZM183.12,251.98c-5.09,1.64-15.61-2.28-21.34-1.85l1.02-4.99c3.28.36,5.94,1.44,9.41.94,2.74-.4,7.11-4.13,8-3.93.99.23,7.1,8.48,2.92,9.82ZM144.31,365.18c-2.35,3.32-20.45-3.16-19.4-8.41.2-1.01,4.66-4.3,5.61-4.48,2.44-.48,16.22,9.46,13.79,12.89ZM163.16,362.03c-8.66.13-21.26-9.91-21.39-18.89,4.32.29,5.61,3.88,10.53,4.03,7.93.25,7.52-7.48,14.9,2.03.75.97,5.67,8.83,5.55,9.36-.39,1.83-7.75,3.44-9.59,3.46ZM290.26,479.13c-5.69,6.21-10.35,16.5-16.46,21.54-4.3,3.54-9.88,4.73-15.02,6.47,13.43-13.97,21.16-33.38,42-37.98-3.04,3.83-7.19,6.34-10.51,9.98ZM359.88,487.53l3.39,11.61c-7.82-5.07-10.55-9.94-9.5-19.5.7-6.4,5.72-15.26,11.99-17.49-2.61,8.82-8.01,15.43-5.88,25.38ZM385.24,425.11c5.72-12.8,7.78-25.41,6.52-39.45-.42-4.61-2.79-9.02-2.49-13.51,11.06,20.5,7.22,52.05-11.49,66.99,1.96-4.98,5.26-9.12,7.46-14.03ZM399.57,297.44c-19.51,6.21-32.92,1.64-51.3,1.61-13.02-.02-26.91,9.3-38.02-2.89-19.71-21.6,2.63-49.23,28.48-43.98.71,12.31,10.3,19.76,22.52,18.96,6.24-.41,11.64-5.51,18.07-4.58,1.43.21,8.48,7.12,11.93,8.6,6.78,2.91,11.53-.14,16.87,3.13,12.01,7.35.01,16.42-8.55,19.15ZM422.77,270.13c.88-5.54,6.61-9.09,6.01-14.99,6.92,2.72,13.05,2.71,19.99,0-.24,13.94-14,18.53-25.99,14.99ZM491.67,275.54c-11.09,5.6-25.14.56-34.82-6-.32-1.4,4.96-9.88,6.6-10.31,2.29-.6,9.6,8.65,16.06,9.68,6.57,1.05,7.7-1.9,12.02-2.6,6.82-1.1,6.67,5.93.14,9.23Z"/>
  <path class="cls-1" d="M306.57.43C108.77,10.47-28.6,188.81,5.09,383.33c21.19,122.33,115.58,224.07,236.67,252.33,164.28,38.34,327.99-42.32,384.28-202.74C702.3,215.63,537.26-11.27,306.57.43ZM428.48,605.38c-9.78,6.39-33.59,11.33-45.5,13.47-54.01,9.68-113.76,6.36-165.21-12.72.18-1.65,6.51-2.99,7.5-2.99h204.5c.49,2.37-.33,1.61-1.29,2.24ZM492.3,574.17c-9.38,5.95-27.98,16.74-38.82,12.76-2.31-.85-12.89-7.46-10.72-9.78.3-.32,6.39-1.17,8.52-1.99,16.69-6.39,25.6-21.93,17.82-39.06l-292.88-.03c-1.8-.18-2.3,2.46-2.91,4.11-7.09,19.33,11.71,37.82,30.45,38.98-15.6,22.63-42.22,1.21-58.31-10.2C-41.9,436.1-14.05,143.74,194.41,48.28c188.61-86.37,404.62,35.52,428.23,240.49,12.46,108.14-37.55,226.61-130.34,285.4Z"/>
</svg>