<?xml version="1.0" encoding="UTF-8"?>
<svg id="Layer_1" data-name="Layer 1" xmlns="http://www.w3.org/2000/svg" viewBox="0 0 599.6 773.97">
  <defs>
    <style>
      .cls-1 {
        fill: #834d21;
      }

      .cls-2 {
        fill: #322112;
      }

      .cls-3 {
        fill: #b37a4e;
      }
    </style>
  </defs>
  <path class="cls-1" d="M43.68,395.95c58.82-16.03,120.26-27.07,181.32-30.91,91.06-5.72,233.62-.84,320.47,27.23,3.55,1.15,11.31,2.83,12.48,6.27,1.45,4.24.52,25.87.34,32.18-2.61,96.35-30.52,202.18-111.01,262.29-37.15,27.74-80.7,42.93-120.92,64.88-4.96,2.71-24.79,16.8-27.73,16.04-41.45-30.98-92.68-45.43-135.4-74.43-96.52-65.52-125.94-192.63-119.56-303.56Z"/>
  <path class="cls-2" d="M378.97,30.66c-.35.56-8.63,3.78-11.69,6.2-23.34,18.46-45.14,61.33-41.84,91.35,84.76,13.66,180.17,27.69,238.78,97.03,23.71,28.05,38.29,71.39,34.9,108.24-2.59,28.13-13.69,33.09-40.01,31.55-33.67-1.97-72.9-12.61-107.63-16.81-110.48-13.36-216.72-11.06-326.82,3.43-27.11,3.57-57.14,11.42-83.8,13.37-23.59,1.72-37.7-1.62-40.1-28.03-10.61-116.68,92.23-171.19,189.58-194.1,11.76-2.77,69.36-11.23,73.94-14.69,6.39-4.83,10.97-40.82,13.91-50.86,9.63-32.9,46.38-93.29,87.99-73.38,3.51,1.68,10.26,6.77,11.77,10.39,1.32,3.14,2.41,14.09,1.01,16.33Z"/>
  <path class="cls-3" d="M109.21,426.51c2.35-.72,3.44-.21,4.94,1.62,2.96,3.6,7.78,45.5,9.91,54.86,13.61,59.91,43.02,113.61,81.12,160.99.75,8.5-13.3-.01-16.88-1.93-49.05-26.18-85.19-97.46-88.68-151.67-.62-9.6-.69-60.71,9.58-63.88Z"/>
</svg>